<svg width="88" height="103" viewBox="0 0 88 103" fill="none" xmlns="http://www.w3.org/2000/svg">
<g filter="url(#filter0_d_333_877)">
<circle cx="56.5" cy="48.5" r="16.5" fill="#5B5A5F" fill-opacity="0.5" shape-rendering="crispEdges"/>
</g>
<path d="M51 48.3563V46.7361C51 46.5712 51.0585 46.4302 51.1756 46.3131C51.2926 46.1961 51.4336 46.1375 51.5986 46.1375C51.7689 46.1375 51.9125 46.1961 52.0296 46.3131C52.1466 46.4302 52.2052 46.5712 52.2052 46.7361V48.3084C52.2052 49.213 52.3914 50.0058 52.7638 50.6868C53.1363 51.3679 53.6604 51.8973 54.3361 52.2751C55.0119 52.6476 55.8047 52.8338 56.7145 52.8338C57.6244 52.8338 58.4145 52.6476 59.085 52.2751C59.7607 51.8973 60.2848 51.3679 60.6572 50.6868C61.0297 50.0058 61.2159 49.213 61.2159 48.3084V46.7361C61.2159 46.5712 61.2745 46.4302 61.3915 46.3131C61.5086 46.1961 61.6523 46.1375 61.8226 46.1375C61.9874 46.1375 62.1285 46.1961 62.2455 46.3131C62.3625 46.4302 62.4211 46.5712 62.4211 46.7361V48.3563C62.4211 49.3992 62.2056 50.325 61.7747 51.1338C61.3489 51.9425 60.7531 52.5917 59.9868 53.0812C59.2206 53.5654 58.3294 53.85 57.3131 53.9352V55.7948H60.2742C60.4444 55.7948 60.5881 55.8533 60.7052 55.9704C60.8222 56.0874 60.8808 56.2311 60.8808 56.4014C60.8808 56.5664 60.8222 56.7073 60.7052 56.8243C60.5881 56.9414 60.4444 57 60.2742 57H53.1469C52.9767 57 52.833 56.9414 52.716 56.8243C52.5989 56.7073 52.5404 56.5664 52.5404 56.4014C52.5404 56.2311 52.5989 56.0874 52.716 55.9704C52.833 55.8533 52.9767 55.7948 53.1469 55.7948H56.108V53.9352C55.0917 53.85 54.2005 53.5654 53.4343 53.0812C52.6681 52.5917 52.0695 51.9425 51.6385 51.1338C51.2128 50.325 51 49.3992 51 48.3563ZM56.7145 51.1178C56.1825 51.1178 55.7169 50.9954 55.3178 50.7507C54.9188 50.5059 54.6075 50.1681 54.384 49.7371C54.1606 49.3008 54.0488 48.7979 54.0488 48.2286V42.8892C54.0488 42.3199 54.1606 41.8197 54.384 41.3887C54.6075 40.9524 54.9188 40.6119 55.3178 40.3671C55.7169 40.1224 56.1825 40 56.7145 40C57.2413 40 57.7042 40.1224 58.1033 40.3671C58.5077 40.6119 58.8189 40.9524 59.0371 41.3887C59.2605 41.8197 59.3723 42.3199 59.3723 42.8892V48.2286C59.3723 48.7979 59.2605 49.3008 59.0371 49.7371C58.8189 50.1681 58.5077 50.5059 58.1033 50.7507C57.7042 50.9954 57.2413 51.1178 56.7145 51.1178Z" fill="#FEFEFE" fill-opacity="0.8"/>
<defs>
<filter id="filter0_d_333_877" x="0" y="0" width="113" height="113" filterUnits="userSpaceOnUse" color-interpolation-filters="sRGB">
<feFlood flood-opacity="0" result="BackgroundImageFix"/>
<feColorMatrix in="SourceAlpha" type="matrix" values="0 0 0 0 0 0 0 0 0 0 0 0 0 0 0 0 0 0 127 0" result="hardAlpha"/>
<feOffset dy="8"/>
<feGaussianBlur stdDeviation="20"/>
<feComposite in2="hardAlpha" operator="out"/>
<feColorMatrix type="matrix" values="0 0 0 0 0 0 0 0 0 0 0 0 0 0 0 0 0 0 0.12 0"/>
<feBlend mode="normal" in2="BackgroundImageFix" result="effect1_dropShadow_333_877"/>
<feBlend mode="normal" in="BackgroundImageFix" in2="effect1_dropShadow_333_877" result="BackgroundImageFix"/>
<feBlend mode="normal" in="SourceGraphic" in2="BackgroundImageFix" result="shape"/>
</filter>
</defs>
</svg>
