<svg width="15" height="15" viewBox="0 0 15 15" fill="none" xmlns="http://www.w3.org/2000/svg">
<path d="M12.8553 0.38083C13.0906 0.153598 13.4057 0.0278626 13.7327 0.0307048C14.0598 0.033547 14.3727 0.16474 14.604 0.396026C14.8353 0.627312 14.9665 0.940187 14.9693 1.26726C14.9721 1.59434 14.8464 1.90945 14.6192 2.14472L9.26389 7.5L14.6192 12.8553C14.7383 12.9704 14.8333 13.108 14.8987 13.2602C14.9641 13.4124 14.9985 13.5761 15 13.7417C15.0014 13.9073 14.9698 14.0716 14.9071 14.2249C14.8444 14.3782 14.7518 14.5175 14.6346 14.6346C14.5175 14.7518 14.3782 14.8444 14.2249 14.9071C14.0716 14.9698 13.9073 15.0014 13.7417 15C13.5761 14.9985 13.4124 14.9641 13.2602 14.8987C13.108 14.8333 12.9704 14.7383 12.8553 14.6192L7.5 9.26389L2.14472 14.6192C2.02964 14.7383 1.892 14.8333 1.7398 14.8987C1.58761 14.9641 1.42392 14.9985 1.25828 15C1.09265 15.0014 0.928387 14.9698 0.77508 14.9071C0.621774 14.8444 0.482494 14.7518 0.365368 14.6346C0.248242 14.5175 0.155616 14.3782 0.0928929 14.2249C0.0301703 14.0716 -0.00139222 13.9073 4.70994e-05 13.7417C0.00148642 13.5761 0.0358988 13.4124 0.101276 13.2602C0.166654 13.108 0.261686 12.9704 0.38083 12.8553L5.73611 7.5L0.38083 2.14472C0.261686 2.02964 0.166654 1.892 0.101276 1.7398C0.0358988 1.58761 0.00148642 1.42392 4.70994e-05 1.25828C-0.00139222 1.09265 0.0301703 0.928387 0.0928929 0.77508C0.155616 0.621774 0.248242 0.482494 0.365368 0.365368C0.482494 0.248242 0.621774 0.155616 0.77508 0.0928929C0.928387 0.0301703 1.09265 -0.00139222 1.25828 4.70994e-05C1.42392 0.00148642 1.58761 0.0358988 1.7398 0.101276C1.892 0.166654 2.02964 0.261686 2.14472 0.38083L7.5 5.73611L12.8553 0.38083Z" fill="#9C9C9C"/>
</svg>
