<svg width="19" height="13" viewBox="0 0 19 13" fill="none" xmlns="http://www.w3.org/2000/svg">
<path d="M3.72201 1.78571C5.44123 0.589286 7.37313 0 9.5 0C11.6269 0 13.5588 0.589286 15.278 1.78571C16.9972 2.98214 18.2379 4.55357 19 6.5C18.2556 8.44643 17.0149 10.0357 15.278 11.2143C13.5588 12.4107 11.6269 13 9.5 13C7.37313 13 5.44123 12.4107 3.72201 11.2143C2.0028 10.0179 0.762127 8.44643 0 6.5C0.762127 4.55357 2.0028 2.96429 3.72201 1.78571ZM6.45149 9.57143C7.30224 10.4286 8.3125 10.8571 9.5 10.8571C10.6875 10.8571 11.6978 10.4286 12.5485 9.57143C13.3993 8.71429 13.8246 7.69643 13.8246 6.5C13.8246 5.30357 13.3993 4.28571 12.5485 3.42857C11.6978 2.57143 10.6875 2.14286 9.5 2.14286C8.3125 2.14286 7.30224 2.57143 6.45149 3.42857C5.60075 4.28571 5.17537 5.30357 5.17537 6.5C5.17537 7.69643 5.60075 8.71429 6.45149 9.57143ZM7.67444 4.66071C8.18843 4.16071 8.79104 3.89286 9.5 3.89286C10.1912 3.89286 10.8116 4.14286 11.3256 4.66071C11.8218 5.17857 12.0877 5.78571 12.0877 6.5C12.0877 7.21429 11.8396 7.82143 11.3256 8.33928C10.8116 8.83928 10.1912 9.10714 9.5 9.10714C8.79104 9.10714 8.18843 8.85714 7.67444 8.33928C7.17817 7.82143 6.91231 7.21429 6.91231 6.5C6.91231 5.78571 7.17817 5.17857 7.67444 4.66071Z" fill="#FEFEFE"/>
</svg>
